<?xml version="1.0" encoding="UTF-8" standalone="no"?>
<!DOCTYPE svg PUBLIC "-//W3C//DTD SVG 1.1//EN" "http://www.w3.org/Graphics/SVG/1.1/DTD/svg11.dtd"[]>
<svg xmlns="http://www.w3.org/2000/svg" xmlns:xlink="http://www.w3.org/1999/xlink" version="1.1" width="500" height="500" viewBox="185 180 130 125" xml:space="preserve">
<desc>Created with Fabric.js 3.6.3</desc>
<defs>
</defs>
<g transform="matrix(0.7532051329126612 0 0 0.7532051329126612 250 250)">
<g style="">
		<g transform="matrix(1 0 0 1 -1.2345002772887383 11.381390769823234)">
<path style="stroke: none; stroke-width: 1; stroke-dasharray: none; stroke-linecap: butt; stroke-dashoffset: 0; stroke-linejoin: miter; stroke-miterlimit: 4; fill: rgb(0,0,0); fill-rule: evenodd; opacity: 1;" transform=" translate(-26.15168822271126, -40.949268269823236)" d="m 32.376189 23.544453 c 5.18856 0.562885 10.4183 0.642596 15.62762 0.963894 c 3.83726 0.236488 3.9829 6.715147 0.43841 7.799174 c -1.13407 0.346987 -3.55316 0.693596 -4.68706 1.040583 c 1.4399 0.319031 4.16479 0.637684 5.60468 0.956716 c 3.46571 0.767073 3.4608 6.609182 -0.0634 7.269345 c -1.46898 0.275398 -4.22315 0.550608 -5.69232 0.826005 c 1.16658 0.306755 3.61776 0.613508 4.78415 0.92045 c 3.54637 0.932539 3.53749 7.371155 -0.0912 7.896075 c -1.27556 0.184732 -3.83632 0.369086 -5.11206 0.553818 c 0.63448 0.187377 2.55395 0.374754 3.18842 0.561942 c 3.83102 1.130493 3.42756 6.267483 -0.29711 6.684359 c -7.43709 0.834128 -14.29692 1.606301 -21.77178 1.606301 c -7.58119 0 -12.61864 -7.770463 -23.84102039 -7.792374 c -0.0367 -6.796937 -0.0731 -13.593306 -0.10956 -20.390243 c 10.04656039 0 12.65303039 -7.031345 17.45474039 -9.80384 c 5.68061 -3.279468 9.16502 0.321865 14.56758 0.907795 z" stroke-linecap="round" />
</g>
		<g transform="matrix(1 0 0 1 5.525025499999998 37.06271749999999)">
<path style="stroke: none; stroke-width: 1; stroke-dasharray: none; stroke-linecap: butt; stroke-dashoffset: 0; stroke-linejoin: miter; stroke-miterlimit: 4; fill: rgb(0,0,0); fill-rule: evenodd; opacity: 1;" transform=" translate(-32.911214, -66.630595)" d="m 40.295119 63.193311 c 0 1.327691 0 2.655383 0 3.983264 c 0 1.585334 -1.30559 2.891304 -2.89131 2.891304 c -2.995 0 -5.99019 0 -8.9852 0 c -1.58457 0 -2.8913 -1.29917 -2.8913 -2.891304 c 0 -1.113493 0 -1.906066 0 -3.019559 c 3.18654 -0.05005 9.24549 -0.280121 14.76781 -0.963705 z" stroke-linecap="round" />
</g>
		<g transform="matrix(1 0 0 1 5.525025499999998 -24.368108999999997)">
<path style="stroke: none; stroke-width: 1; stroke-dasharray: none; stroke-linecap: butt; stroke-dashoffset: 0; stroke-linejoin: miter; stroke-miterlimit: 4; fill: rgb(0,0,0); fill-rule: evenodd; opacity: 1;" transform=" translate(-32.911214, -5.199768499999998)" d="m 28.418609 -9.932124 c 2.99501 0 5.9902 0 8.9852 0 c 1.59252 0 2.89131 1.302385 2.89131 2.891309 c 0 9.231321 0 18.141155 0 27.372476 c -3.20675 -0.142988 -3.35351 0.194743 -8.15315 -0.500552 c -2.89753 -0.419897 -4.49345 -0.856039 -6.61466 -1.748345 c 0 -8.695825 0 -16.427755 0 -25.123579 c 0 -1.592136 1.29879 -2.891309 2.8913 -2.891309 z" stroke-linecap="round" />
</g>
		<g transform="matrix(1 0 0 1 5.922260499999993 -25.9616585)">
<path style="stroke: none; stroke-width: 1; stroke-dasharray: none; stroke-linecap: butt; stroke-dashoffset: 0; stroke-linejoin: miter; stroke-miterlimit: 4; fill: rgb(0,0,0); fill-rule: evenodd; opacity: 1;" transform=" translate(-33.308448999999996, -3.606219000000001)" d="m 11.198479 6.826566 c 6.36192 -2.722061 6.08501 -8.619892 6.78012 -11.939783 c 4.57864 0 33.97089 0.326399 37.43982 0.326399 c 0 4.30569596 0 12.806588 0 17.112473 c -4.67498 0 -35.64708 -0.0238 -41.32864 -0.0238 c -1.59251 0 -2.8913 -1.298981 -2.8913 -2.891304 c 0 -2.146331 0 -0.437275 0 -2.583985 z" stroke-linecap="round" />
</g>
</g>
</g>
<g transform="matrix(1.7064327175939078 0 0 1.7064327175939078 250 243.58974358974353)">
<path style="stroke: none; stroke-width: 0; stroke-dasharray: none; stroke-linecap: butt; stroke-dashoffset: 0; stroke-linejoin: miter; stroke-miterlimit: 4; fill: rgb(0,0,0); fill-rule: nonzero; opacity: 1;" transform=" translate(-46.76946946910626, -50.55)" d="M 46.769 20.261 c 0.547 0 1.095 0.181 1.513 0.542 l 12.837 11.105 c 0.306 0.264 0.59 0.39 0.827 0.39 c 0.413 0 0.686 -0.381 0.686 -1.082 v -2.679 c 0 -1.104 0.896 -2 2 -2 h 4.995 c 1.104 0 2 0.896 2 2 v 10.46 c 0 1.104 0.677 2.586 1.513 3.309 l 6.235 5.394 c 0.836 0.723 0.617 1.309 -0.487 1.309 h -5.261 c -1.104 0 -2 0.793 -2 1.771 s 0 1.771 0 1.771 v 26.289 c 0 1.104 -0.896 2 -2 2 H 23.912 c -1.104 0 -2 -0.896 -2 -2 v -27.83 c 0 -1.104 -0.896 -2 -2 -2 h -5.261 c -1.104 0 -1.323 -0.586 -0.487 -1.309 l 31.093 -26.897 C 45.674 20.441 46.222 20.261 46.769 20.261 M 46.769 17.261 c -1.291 0 -2.525 0.452 -3.475 1.272 L 12.201 45.432 c -2.044 1.767 -1.537 3.692 -1.333 4.24 c 0.204 0.549 1.08 2.337 3.783 2.337 h 4.261 v 26.83 c 0 2.757 2.243 5 5 5 h 45.715 c 2.757 0 5 -2.243 5 -5 V 52.55 v -0.541 h 4.261 c 2.703 0 3.579 -1.788 3.783 -2.337 c 0.204 -0.548 0.711 -2.474 -1.334 -4.241 l -6.234 -5.394 c -0.19 -0.18 -0.464 -0.779 -0.476 -1.046 V 28.537 c 0 -2.757 -2.243 -5 -5 -5 h -4.995 c -2.182 0 -4.042 1.405 -4.723 3.357 l -9.664 -8.36 C 49.294 17.713 48.06 17.261 46.769 17.261 L 46.769 17.261 z" stroke-linecap="round" />
</g>
</svg>